<svg width="292" height="165" viewBox="0 0 292 165" fill="none" xmlns="http://www.w3.org/2000/svg">
<g clip-path="url(#clip0_9_6)">
<path d="M134.53 3.01627L134.532 3.01584C143.242 0.640139 154.215 0.772806 162.658 3.27945L162.659 3.27993C166.474 4.39806 171.67 6.81112 176.305 9.41922C178.619 10.7214 180.783 12.0667 182.556 13.3152C184.334 14.5677 185.685 15.7 186.408 16.5776C184.944 15.7295 182.394 14.1443 178.265 11.5764C168.455 5.39426 159.696 2.83346 148.267 2.83346C141.915 2.83346 137.291 3.26726 133.155 4.52165C129.013 5.77778 125.394 7.84637 121.036 11.0646L121.028 11.0703L121.021 11.0764C119.026 12.6718 117.494 13.7109 116.576 14.1696C116.537 14.1893 116.499 14.2077 116.463 14.2248C116.957 13.4001 117.817 12.4484 118.962 11.44C120.227 10.3261 121.809 9.17091 123.55 8.0731C127.038 5.87456 131.125 3.93301 134.53 3.01627Z" fill="white" stroke="white"/>
<path d="M237.526 3.92852L237.527 3.92807C239.488 3.10584 242.227 2.86962 245.009 3.19688C247.787 3.52373 250.537 4.40454 252.52 5.7476L252.523 5.74966C254.588 7.12657 256.237 9.83489 257.085 12.9003C257.932 15.9613 257.95 19.2724 256.874 21.8048L256.871 21.8112C253.082 31.0883 245.117 36.8582 233.934 38.438C232.308 38.6414 230.871 38.9816 229.877 39.3478C229.388 39.5282 228.968 39.7283 228.688 39.944C228.553 40.0486 228.402 40.193 228.319 40.3842C228.223 40.6045 228.233 40.8579 228.381 41.0733C228.259 41.162 227.973 41.2722 227.461 41.3545C226.442 41.518 224.852 41.5259 222.954 41.385C219.169 41.104 214.314 40.2437 210.697 38.9944L210.694 38.9935C206.797 37.6722 201.323 35.1523 196.651 32.6752C194.317 31.4376 192.194 30.216 190.574 29.1662C189.764 28.6409 189.088 28.1632 188.577 27.7517C188.438 27.64 188.315 27.5358 188.206 27.4393C188.743 27.6192 189.462 27.9153 190.311 28.3144C191.452 28.9186 192.505 29.3948 193.283 29.6714C193.667 29.8079 194.013 29.9067 194.281 29.9385C194.405 29.9532 194.574 29.9621 194.734 29.911C194.821 29.8833 194.934 29.8287 195.027 29.7194C195.126 29.6023 195.167 29.4631 195.167 29.3336C195.167 29.0316 195.014 28.7693 194.853 28.5686C194.684 28.3578 194.451 28.1469 194.18 27.9383C193.635 27.5196 192.866 27.0582 191.938 26.5737C190.077 25.6023 187.511 24.5025 184.659 23.4322C178.961 21.2933 172.055 19.2459 167.27 18.5719L167.268 18.5716C162.863 17.971 159.797 17.6662 156.855 17.7338C153.909 17.8015 151.106 18.2424 147.225 19.1124L147.222 19.113C144.76 19.6786 142.772 20.0842 141.24 20.3295C139.692 20.5775 138.657 20.6533 138.074 20.5869C137.955 20.5733 137.872 20.5555 137.817 20.5398C137.891 20.4208 138.039 20.2459 138.295 20.0115C138.585 19.747 138.982 19.4351 139.489 19.0747L139.489 19.0748L139.498 19.0688C141.187 17.8171 144.243 16.8948 148.51 16.38C152.754 15.868 158.122 15.7672 164.369 16.0994C175.889 16.8941 182.628 18.7385 197.789 25.787L197.791 25.788C220.743 36.3293 235.229 37.9035 246.396 30.9592C251.473 27.8452 254.71 23.8169 255.801 19.5919C256.897 15.348 255.807 10.9757 252.367 7.26059L252.366 7.25977C249.527 4.20794 244.808 3.5586 240.199 4.68117C235.575 5.80727 230.927 8.74027 228.117 13.0584C227.402 14.1302 226.819 15.729 226.414 17.4524C226.006 19.186 225.767 21.0912 225.767 22.8003C225.767 24.5914 225.633 25.8659 225.437 26.5449C225.425 26.5856 225.413 26.6229 225.402 26.6571C223.585 23.6156 224.176 19.0059 226.494 14.5476C228.835 10.0462 232.856 5.87467 237.526 3.92852ZM187.617 26.7872C187.617 26.7871 187.618 26.7897 187.62 26.7949C187.618 26.7898 187.617 26.7872 187.617 26.7872ZM207.857 34.7715L207.855 34.7701C206.023 33.6847 203.096 32.3403 200.636 31.353C199.405 30.8588 198.276 30.4482 197.449 30.2023C197.04 30.0807 196.681 29.9922 196.412 29.959C196.286 29.9435 196.13 29.9331 195.987 29.9637C195.914 29.9792 195.798 30.0145 195.693 30.1071C195.569 30.2155 195.5 30.3693 195.5 30.5336C195.5 30.7039 195.574 30.8333 195.619 30.9C195.669 30.9756 195.731 31.0417 195.789 31.0965C195.905 31.2072 196.059 31.3232 196.231 31.4403C196.579 31.677 197.066 31.9604 197.637 32.2693C198.784 32.8892 200.32 33.636 201.892 34.355C203.465 35.0744 205.082 35.7698 206.392 36.2863C207.046 36.5443 207.63 36.7598 208.095 36.9116C208.328 36.9874 208.536 37.0492 208.713 37.0925C208.879 37.1333 209.053 37.167 209.2 37.167C209.285 37.167 209.51 37.1557 209.676 36.9676C209.872 36.7453 209.815 36.4878 209.777 36.3808C209.735 36.2661 209.667 36.1694 209.61 36.0996C209.549 36.0234 209.474 35.9461 209.393 35.8696C209.073 35.5681 208.539 35.1803 207.857 34.7715ZM219.423 38.3083L219.419 38.3076C218.448 38.1401 217.653 38.0215 217.03 37.9533C216.419 37.8864 215.935 37.8629 215.605 37.9042C215.457 37.9227 215.242 37.964 215.075 38.1004C214.977 38.1804 214.886 38.301 214.854 38.4628C214.824 38.6179 214.858 38.7539 214.9 38.8505C214.977 39.0258 215.12 39.1659 215.239 39.2679C215.367 39.3774 215.528 39.4919 215.714 39.6108C215.989 39.8177 216.365 39.9924 216.777 40.1422C217.205 40.2984 217.707 40.4396 218.243 40.5644C219.317 40.814 220.56 41.0046 221.703 41.1146C222.838 41.224 223.908 41.2571 224.624 41.1785C224.805 41.1586 224.975 41.1304 225.125 41.0901C225.265 41.0523 225.43 40.9929 225.565 40.8876C225.717 40.7699 225.872 40.5561 225.831 40.2659C225.798 40.0345 225.652 39.8691 225.541 39.768C225.427 39.6598 225.271 39.5944 225.176 39.5566C225.05 39.507 224.895 39.4572 224.722 39.4073C224.373 39.307 223.911 39.196 223.374 39.0785C222.298 38.8432 220.891 38.5752 219.423 38.3083Z" fill="white" stroke="white"/>
<mask id="path-3-inside-1_9_6" fill="white">
<path d="M85.7332 16.6667C79.8665 19.3334 74.2665 25.3334 70.3999 33.3334L67.7332 38.8001L56.7999 38.2668C32.7999 37.0668 12.2665 47.4668 3.73319 65.3334C-1.46681 76.4001 -1.20014 90.9334 4.53319 98.6668C7.46653 102.667 8.26653 100.4 5.99986 94.9334C3.73319 89.3334 3.33319 78.2668 5.33319 71.2001C7.59986 63.0668 16.2665 54.6667 28.6665 48.5334C38.2665 43.7334 41.1999 42.9334 51.0665 42.4001C57.3332 42.0001 63.3332 42.0001 64.3999 42.4001C66.1332 43.0668 65.5999 45.7334 61.4665 58.8001L56.5332 74.4001L47.9999 76.1334C23.5999 81.2001 3.73319 100 3.46653 118.533C3.19986 140 26.5332 148 43.7332 132.267C50.9332 125.6 56.9332 113.467 62.1332 94.9334C64.1332 87.8668 66.2665 82.0001 66.7999 82.0001C68.9332 82.0001 71.0665 88.0001 72.1332 97.8668C73.8665 111.867 80.6665 125.6 88.9332 132C94.7999 136.533 98.3999 138 96.6665 135.467C96.2665 134.8 99.1999 135.333 103.333 136.8C112.267 139.867 117.6 140 126.4 137.2C132.667 135.067 133.6 135.067 137.867 137.2C144.267 140.267 156.533 140 163.333 136.667C166.4 135.2 172.4 130.533 176.667 126.267C181.867 121.067 183.6 120 181.867 122.667L179.467 126.667L182.533 124C187.333 119.867 191.733 110 200.133 84.6668C204.267 71.8668 208.133 60.2667 208.667 59.0667C209.867 56.1334 205.333 53.7334 200.267 54.8001C196.933 55.4668 196.133 56.4001 195.467 60.5334C194.533 66.4001 180 95.6001 177.733 96.4001C174.667 97.3334 175.867 89.4667 180.8 75.3334C185.067 62.6667 185.333 61.4668 183.333 59.3334C182 57.8668 179.467 56.9334 176.667 57.0667C172.533 57.2001 172.267 57.4668 172.933 60.8001C173.333 62.9334 172.267 68.8001 170.267 74.9334C164.267 93.3334 164.4 97.3334 170.8 100.8C175.067 103.067 179.6 99.8668 184.4 91.4668C186.667 87.4668 188.667 84.8001 188.933 85.4668C189.2 86.2668 187.333 92.1334 184.667 98.6668C179.867 111.067 172.4 123.333 169.867 123.333C166.667 123.333 165.467 113.333 168 108.533C168.8 107.2 168.933 106 168.267 106C166.667 106 164 112.133 164 115.733C164 117.333 164.933 120.4 166 122.533C167.867 126 167.867 126.533 165.733 128.267C158.133 134.267 143.733 137.333 138.667 134C136.933 132.8 137.2 132.133 140.267 129.867C144.8 126.533 149.333 119.2 149.333 115.467C149.333 111.2 144.667 107.333 139.333 107.333C136.8 107.333 131.333 108.667 127.2 110.133C116 114.4 109.867 114.133 105.867 109.6C102.133 105.333 101.867 100.4 104.667 93.4668C107.467 86.9334 114.667 75.3334 116 75.3334C116.533 75.3334 115.6 79.8668 113.867 85.3334C110.267 96.5334 110 99.6001 112 103.467C113.467 106.133 118 106.8 121.2 104.8C122.533 104 122.533 103.067 121.6 101.067C120.533 99.0668 121.2 95.3334 124.8 84.8001C127.2 77.3334 129.867 70.1334 130.667 68.8001C131.6 66.9334 131.333 65.7334 129.467 64.1334C125.333 60.4001 121.867 61.6001 115.467 68.9334L109.333 76.0001L114.667 61.0667C120.933 43.2001 124.267 36.0001 128.667 30.6667C131.2 27.6001 131.867 27.2001 132 29.0667C132 32.5334 128.4 40.5334 124.533 45.6001C122.667 48.0001 121.867 50.0001 122.667 50.0001C124.533 50.0001 131.733 38.5334 133.467 32.6667C135.333 26.5334 134.533 16.4001 132.267 15.6001C130.8 15.2001 130.667 15.6001 131.867 17.7334C133.067 20.0001 132.4 20.8001 126.667 24.4001C119.333 28.9334 113.2 36.6667 109.867 45.4667C108.4 49.2001 106.8 51.3334 105.333 51.3334C101.733 51.3334 101.467 50.0001 104.133 45.3334C105.6 42.9334 107.067 38.0001 107.6 34.4001C109.2 20.1334 98.1332 11.0667 85.7332 16.6667ZM99.1999 22.2667C100.4 23.8667 101.333 27.2001 101.333 29.6001C101.333 33.8667 97.8665 45.7334 96.1332 47.7334C94.9332 48.9334 79.5999 42.8001 78.9332 40.9334C78.2665 38.6667 83.1999 28.5334 87.1999 23.6001C91.5999 18.5334 96.2665 18.0001 99.1999 22.2667ZM86.3999 47.8668C90.2665 49.3334 93.3332 51.2001 93.3332 52.0001C93.3332 52.8001 89.5999 57.0667 85.0665 61.6001C77.0665 69.3334 72.3999 72.6668 69.5999 72.6668C68.7999 72.6668 69.9999 67.0668 71.9999 60.2668C75.7332 47.0668 76.9332 44.2667 78.5332 44.9334C78.9332 45.2001 82.5332 46.5334 86.3999 47.8668ZM105.333 54.9334C105.333 55.3334 102.667 64.1334 99.1999 74.5334C90.2665 102.4 90.1332 108.667 98.1332 108.667C99.8665 108.667 102.8 110.133 104.8 112C109.2 116.133 117.067 116.4 126.267 112.8C139.733 107.6 146.667 108.533 144.933 115.467C144 119.067 135.2 130 133.2 130C132.533 130 130.667 127.467 129.2 124.267C126.933 119.333 126.667 119.2 127.2 122.667C127.467 124.8 128.133 128 128.667 129.6C129.6 132.4 129.2 132.667 125.2 132.933C112.667 133.6 105.467 131.2 97.3332 123.867C88.5332 115.867 84.3999 107.067 81.9999 91.3334C80.7999 83.3334 78.2665 79.6001 73.0665 78.2668L68.6665 77.2001L77.1999 72.6668C81.8665 70.1334 88.9332 64.6667 93.0665 60.5334C98.1332 55.4667 101.2 53.2001 102.933 53.7334C104.267 54.0001 105.333 54.6667 105.333 54.9334ZM54.6665 80.2668C54.6665 85.7334 47.4665 108.8 42.6665 118.8C36.5332 131.467 30.5332 136.667 21.8665 136.667C15.7332 136.667 11.4665 134.133 8.66653 128.667C3.86653 119.467 8.26653 106 19.7332 94.6668C27.1999 87.2001 34.5332 83.0668 45.3332 80.1334C54.7999 77.6001 54.6665 77.6001 54.6665 80.2668ZM94.6665 133.733C94.6665 134.8 86.9332 127.733 84.6665 124.667C83.3332 122.8 85.0665 124 88.3999 127.333C91.8665 130.533 94.6665 133.467 94.6665 133.733Z"/>
</mask>
<path d="M85.7332 16.6667C79.8665 19.3334 74.2665 25.3334 70.3999 33.3334L67.7332 38.8001L56.7999 38.2668C32.7999 37.0668 12.2665 47.4668 3.73319 65.3334C-1.46681 76.4001 -1.20014 90.9334 4.53319 98.6668C7.46653 102.667 8.26653 100.4 5.99986 94.9334C3.73319 89.3334 3.33319 78.2668 5.33319 71.2001C7.59986 63.0668 16.2665 54.6667 28.6665 48.5334C38.2665 43.7334 41.1999 42.9334 51.0665 42.4001C57.3332 42.0001 63.3332 42.0001 64.3999 42.4001C66.1332 43.0668 65.5999 45.7334 61.4665 58.8001L56.5332 74.4001L47.9999 76.1334C23.5999 81.2001 3.73319 100 3.46653 118.533C3.19986 140 26.5332 148 43.7332 132.267C50.9332 125.6 56.9332 113.467 62.1332 94.9334C64.1332 87.8668 66.2665 82.0001 66.7999 82.0001C68.9332 82.0001 71.0665 88.0001 72.1332 97.8668C73.8665 111.867 80.6665 125.6 88.9332 132C94.7999 136.533 98.3999 138 96.6665 135.467C96.2665 134.8 99.1999 135.333 103.333 136.8C112.267 139.867 117.6 140 126.4 137.2C132.667 135.067 133.6 135.067 137.867 137.2C144.267 140.267 156.533 140 163.333 136.667C166.4 135.2 172.4 130.533 176.667 126.267C181.867 121.067 183.6 120 181.867 122.667L179.467 126.667L182.533 124C187.333 119.867 191.733 110 200.133 84.6668C204.267 71.8668 208.133 60.2667 208.667 59.0667C209.867 56.1334 205.333 53.7334 200.267 54.8001C196.933 55.4668 196.133 56.4001 195.467 60.5334C194.533 66.4001 180 95.6001 177.733 96.4001C174.667 97.3334 175.867 89.4667 180.8 75.3334C185.067 62.6667 185.333 61.4668 183.333 59.3334C182 57.8668 179.467 56.9334 176.667 57.0667C172.533 57.2001 172.267 57.4668 172.933 60.8001C173.333 62.9334 172.267 68.8001 170.267 74.9334C164.267 93.3334 164.4 97.3334 170.8 100.8C175.067 103.067 179.6 99.8668 184.4 91.4668C186.667 87.4668 188.667 84.8001 188.933 85.4668C189.2 86.2668 187.333 92.1334 184.667 98.6668C179.867 111.067 172.4 123.333 169.867 123.333C166.667 123.333 165.467 113.333 168 108.533C168.8 107.2 168.933 106 168.267 106C166.667 106 164 112.133 164 115.733C164 117.333 164.933 120.4 166 122.533C167.867 126 167.867 126.533 165.733 128.267C158.133 134.267 143.733 137.333 138.667 134C136.933 132.8 137.2 132.133 140.267 129.867C144.8 126.533 149.333 119.2 149.333 115.467C149.333 111.2 144.667 107.333 139.333 107.333C136.8 107.333 131.333 108.667 127.2 110.133C116 114.4 109.867 114.133 105.867 109.6C102.133 105.333 101.867 100.4 104.667 93.4668C107.467 86.9334 114.667 75.3334 116 75.3334C116.533 75.3334 115.6 79.8668 113.867 85.3334C110.267 96.5334 110 99.6001 112 103.467C113.467 106.133 118 106.8 121.2 104.8C122.533 104 122.533 103.067 121.6 101.067C120.533 99.0668 121.2 95.3334 124.8 84.8001C127.2 77.3334 129.867 70.1334 130.667 68.8001C131.6 66.9334 131.333 65.7334 129.467 64.1334C125.333 60.4001 121.867 61.6001 115.467 68.9334L109.333 76.0001L114.667 61.0667C120.933 43.2001 124.267 36.0001 128.667 30.6667C131.2 27.6001 131.867 27.2001 132 29.0667C132 32.5334 128.4 40.5334 124.533 45.6001C122.667 48.0001 121.867 50.0001 122.667 50.0001C124.533 50.0001 131.733 38.5334 133.467 32.6667C135.333 26.5334 134.533 16.4001 132.267 15.6001C130.8 15.2001 130.667 15.6001 131.867 17.7334C133.067 20.0001 132.4 20.8001 126.667 24.4001C119.333 28.9334 113.2 36.6667 109.867 45.4667C108.4 49.2001 106.8 51.3334 105.333 51.3334C101.733 51.3334 101.467 50.0001 104.133 45.3334C105.6 42.9334 107.067 38.0001 107.6 34.4001C109.2 20.1334 98.1332 11.0667 85.7332 16.6667ZM99.1999 22.2667C100.4 23.8667 101.333 27.2001 101.333 29.6001C101.333 33.8667 97.8665 45.7334 96.1332 47.7334C94.9332 48.9334 79.5999 42.8001 78.9332 40.9334C78.2665 38.6667 83.1999 28.5334 87.1999 23.6001C91.5999 18.5334 96.2665 18.0001 99.1999 22.2667ZM86.3999 47.8668C90.2665 49.3334 93.3332 51.2001 93.3332 52.0001C93.3332 52.8001 89.5999 57.0667 85.0665 61.6001C77.0665 69.3334 72.3999 72.6668 69.5999 72.6668C68.7999 72.6668 69.9999 67.0668 71.9999 60.2668C75.7332 47.0668 76.9332 44.2667 78.5332 44.9334C78.9332 45.2001 82.5332 46.5334 86.3999 47.8668ZM105.333 54.9334C105.333 55.3334 102.667 64.1334 99.1999 74.5334C90.2665 102.4 90.1332 108.667 98.1332 108.667C99.8665 108.667 102.8 110.133 104.8 112C109.2 116.133 117.067 116.4 126.267 112.8C139.733 107.6 146.667 108.533 144.933 115.467C144 119.067 135.2 130 133.2 130C132.533 130 130.667 127.467 129.2 124.267C126.933 119.333 126.667 119.2 127.2 122.667C127.467 124.8 128.133 128 128.667 129.6C129.6 132.4 129.2 132.667 125.2 132.933C112.667 133.6 105.467 131.2 97.3332 123.867C88.5332 115.867 84.3999 107.067 81.9999 91.3334C80.7999 83.3334 78.2665 79.6001 73.0665 78.2668L68.6665 77.2001L77.1999 72.6668C81.8665 70.1334 88.9332 64.6667 93.0665 60.5334C98.1332 55.4667 101.2 53.2001 102.933 53.7334C104.267 54.0001 105.333 54.6667 105.333 54.9334ZM54.6665 80.2668C54.6665 85.7334 47.4665 108.8 42.6665 118.8C36.5332 131.467 30.5332 136.667 21.8665 136.667C15.7332 136.667 11.4665 134.133 8.66653 128.667C3.86653 119.467 8.26653 106 19.7332 94.6668C27.1999 87.2001 34.5332 83.0668 45.3332 80.1334C54.7999 77.6001 54.6665 77.6001 54.6665 80.2668ZM94.6665 133.733C94.6665 134.8 86.9332 127.733 84.6665 124.667C83.3332 122.8 85.0665 124 88.3999 127.333C91.8665 130.533 94.6665 133.467 94.6665 133.733Z" fill="white" stroke="white" stroke-width="2" mask="url(#path-3-inside-1_9_6)"/>
<path d="M35.4663 86.1336C27.0663 90.5336 13.333 103.2 13.333 106.534C13.333 109.734 21.1997 113.067 28.533 112.934C33.0663 112.8 36.533 111.734 40.2663 109.334C43.1997 107.334 45.333 105.467 44.933 105.067C44.533 104.8 42.3997 105.734 40.133 107.467C33.0663 112.667 18.133 112 16.2663 106.267C15.333 103.334 29.5997 90.667 38.7997 86.267C43.4663 83.867 46.3997 82.1336 45.333 82.1336C44.2663 82.1336 39.733 84.0003 35.4663 86.1336Z" fill="white"/>
<path d="M247.218 122.72L246.99 122.914L242.596 126.643C242.595 126.644 242.594 126.645 242.593 126.646C237.149 131.416 231.51 134.466 226.424 135.588C221.335 136.712 216.748 135.911 213.525 132.898L213.524 132.898C212.451 131.892 211.632 131.017 211.109 130.22C210.583 129.42 210.318 128.639 210.457 127.847C210.595 127.063 211.109 126.384 211.875 125.738C212.643 125.092 213.722 124.43 215.094 123.694C217.563 122.329 221.353 119.106 224.545 115.897C226.136 114.298 227.563 112.718 228.588 111.396C229.101 110.734 229.505 110.147 229.779 109.66C230.066 109.151 230.166 108.827 230.166 108.667C230.166 108.082 229.889 107.393 229.363 106.675C228.842 105.963 228.108 105.266 227.276 104.674C226.445 104.082 225.532 103.608 224.664 103.331C223.789 103.051 223.005 102.985 222.401 103.149C214.733 105.359 208.337 112.924 207.296 120.997L207.295 121.006L207.295 121.006C206.96 123.284 206.549 124.87 205.81 126.078C205.058 127.306 203.999 128.093 202.49 128.847L202.485 128.849C199.683 130.217 195.422 131.259 191.298 131.796C187.185 132.331 183.099 132.377 180.663 131.681L180.655 131.679L180.655 131.679C179.578 131.352 178.663 131.169 177.945 131.104C177.205 131.038 176.745 131.103 176.527 131.204C176.487 131.222 176.464 131.238 176.452 131.248C176.454 131.261 176.461 131.283 176.475 131.314C176.57 131.527 176.893 131.894 177.61 132.384C177.912 132.579 178.434 132.761 179.179 132.907C179.915 133.051 180.824 133.15 181.86 133.207C183.932 133.32 186.475 133.259 189.094 133.052C191.711 132.845 194.391 132.493 196.736 132.028C199.088 131.562 201.063 130.991 202.299 130.358C203.389 129.763 204.245 129.301 204.947 129.004C205.649 128.707 206.264 128.546 206.862 128.62C207.472 128.697 207.981 129.008 208.494 129.473C208.999 129.932 209.555 130.586 210.249 131.411L210.249 131.412C213.649 135.466 217.538 137.686 221.87 138.153C226.213 138.621 231.072 137.334 236.415 134.235L236.416 134.234C238.1 133.263 240.591 131.269 243.506 128.64C246.412 126.018 249.712 122.789 253.006 119.37C259.6 112.526 266.141 104.954 269.449 99.9918C274.692 91.9608 279.307 82.2982 282.095 74.3349C283.489 70.3505 284.418 66.8138 284.745 64.1312C284.909 62.7876 284.918 61.6863 284.774 60.8612C284.64 60.0944 284.388 59.645 284.088 59.4164C283.985 59.5543 283.851 59.8187 283.707 60.2439C283.391 61.1765 283.096 62.6679 282.897 64.5848L282.897 64.5886C282.488 68.2698 280.194 75.2624 277.246 81.026C274.364 86.7889 269.483 94.6095 265.077 100.936C262.872 104.1 260.779 106.901 259.107 108.89C258.273 109.883 257.533 110.686 256.93 111.232C256.63 111.504 256.349 111.726 256.095 111.876C255.869 112.01 255.556 112.154 255.235 112.09C255.235 112.09 255.235 112.09 255.235 112.09L255.333 111.6C254.666 111.467 253.866 107.467 253.6 102.8L247.218 122.72ZM247.218 122.72L247.155 122.427L245.023 112.566C245.023 112.566 245.022 112.565 245.022 112.564C242.118 98.4347 245.012 78.9438 254.608 49.4892C259.946 33.2073 264.044 25.2192 269.111 21.1916C271.301 19.4524 273.66 18.6001 276 18.6001C278.339 18.6001 280.699 19.4524 282.889 21.1917L282.893 21.1948C286.248 23.804 287.069 29.1633 285.481 35.6309C283.903 42.0559 279.982 49.3818 274.166 55.6603L274.166 55.661C272.576 57.3829 270.854 59.0721 269.348 60.4287C268.397 61.2858 267.548 61.9962 266.88 62.498M247.218 122.72L266.88 62.498M266.88 62.498C266.907 62.4614 266.936 62.424 266.964 62.3858C267.949 61.0892 269.702 59.0705 271.968 56.6051L266.88 62.498ZM176.45 131.23C176.45 131.23 176.45 131.231 176.45 131.234C176.45 131.231 176.45 131.23 176.45 131.23ZM176.44 131.258C176.44 131.26 176.439 131.26 176.439 131.26C176.439 131.26 176.44 131.259 176.44 131.258ZM227.542 106.115L227.542 106.115L227.539 106.105C227.316 105.457 226.907 104.976 226.357 104.665C225.817 104.361 225.169 104.235 224.475 104.238C223.095 104.242 221.421 104.752 219.729 105.585C216.345 107.251 212.686 110.316 210.89 113.767C210.266 114.947 209.753 116.422 209.429 117.821C209.109 119.203 208.959 120.573 209.105 121.535L209.504 124.86L209.604 125.694L210.289 125.208L217.622 120.008L217.627 120.004C221.313 117.324 224.059 114.788 225.753 112.479C227.436 110.183 228.149 108.01 227.542 106.115Z" fill="white" stroke="white"/>
<path d="M277.776 27.8314L277.778 27.8455L277.782 27.8595C277.952 28.5112 277.906 29.6166 277.629 31.0908C277.356 32.5434 276.871 34.2859 276.227 36.1714C274.937 39.9417 273.017 44.2439 270.902 47.8797C269.568 50.1228 268.554 51.7089 267.852 52.6805C268.034 52.1566 268.286 51.5038 268.608 50.7239C269.348 48.9281 270.452 46.4803 271.915 43.4196C273.651 39.9494 275.402 35.3855 275.821 33.1775C275.935 32.7498 276.054 32.296 276.174 31.8365C276.623 30.1259 277.092 28.3359 277.398 27.5172C277.473 27.3375 277.54 27.1854 277.6 27.0587C277.654 27.259 277.712 27.5142 277.776 27.8314ZM277.425 26.5795C277.425 26.5794 277.426 26.5806 277.428 26.5834C277.426 26.581 277.425 26.5796 277.425 26.5795Z" fill="white" stroke="white"/>
<path d="M159.883 34.1441L159.894 34.1285L159.903 34.112C160.151 33.6715 160.443 33.4664 160.714 33.3934C160.989 33.3193 161.313 33.3619 161.657 33.5536C162.354 33.9425 163.054 34.9161 163.238 36.3316L163.238 36.3316L163.239 36.3376C163.353 37.1353 163.127 38.1489 162.627 39.2421C162.131 40.3251 161.389 41.435 160.541 42.4043C159.691 43.3754 158.753 44.1843 157.88 44.6825C156.985 45.1926 156.266 45.3177 155.78 45.1337C155.105 44.8691 154.364 44.323 153.637 43.5797C152.914 42.8406 152.229 41.9316 151.664 40.9784C151.098 40.0242 150.66 39.041 150.421 38.1569C150.178 37.2637 150.156 36.5386 150.333 36.0492C150.624 35.3561 150.994 34.989 151.566 34.811C152.191 34.6165 153.117 34.6277 154.562 34.8893C155.676 35.1658 156.797 35.2373 157.724 35.1303C158.19 35.0765 158.622 34.9761 158.985 34.8239C159.342 34.6743 159.675 34.4572 159.883 34.1441Z" fill="white" stroke="white"/>
<path d="M28.6661 50.1333C19.5995 54.9333 13.9995 60.1333 10.1328 67.2C8.13279 70.9333 6.79945 74 7.06612 74C7.33279 74 9.73279 70.8 12.3995 66.8C17.1995 59.6 25.1995 52.9333 33.7328 49.3333C35.9995 48.2667 37.0661 47.4667 35.9995 47.3333C34.9328 47.3333 31.5995 48.6667 28.6661 50.1333Z" fill="white"/>
<path d="M230.359 54.4915L230.359 54.4915L230.364 54.4905C234.373 53.6886 236.81 53.3374 238.551 53.4492C240.232 53.5572 241.263 54.097 242.462 55.169C242.999 55.6723 243.346 56.0267 243.558 56.3818C243.754 56.7096 243.844 57.0538 243.801 57.5587C243.757 58.0881 243.569 58.7856 243.193 59.8017C242.82 60.8119 242.275 62.0993 241.542 63.8001C237.138 73.743 234.513 81.9967 233.937 86.588C233.793 87.7349 233.771 88.6933 233.901 89.4061C234.025 90.0876 234.333 90.7493 235.027 90.9066C235.35 90.9799 235.683 90.9194 236 90.7889C236.318 90.6582 236.652 90.4447 237.001 90.1639C237.698 89.6026 238.517 88.7205 239.46 87.5084C240.193 86.5755 240.762 85.867 241.193 85.3661C241.251 85.2989 241.306 85.2358 241.358 85.1768C241.327 85.3061 241.291 85.4491 241.249 85.6063L241.249 85.6063L241.248 85.6123C240.747 87.616 238.921 90.2715 236.777 92.4494C235.712 93.53 234.591 94.4708 233.551 95.1376C232.493 95.8156 231.585 96.1669 230.933 96.1669C229.306 96.1669 227.954 95.4216 227.008 94.0789C226.053 92.7233 225.501 90.738 225.566 88.28L225.566 88.28V88.2669C225.566 87.3351 225.558 86.603 225.523 86.07C225.506 85.8041 225.482 85.5725 225.444 85.3833C225.411 85.2134 225.354 85.0008 225.223 84.838C225.15 84.7457 225.037 84.65 224.878 84.608C224.718 84.5659 224.572 84.5935 224.462 84.6379C224.269 84.7159 224.118 84.873 224.01 84.9995C223.779 85.2724 223.501 85.7165 223.172 86.275C220.251 90.9878 217.57 94.0347 215.11 95.5043C213.888 96.2341 212.739 96.5639 211.651 96.5338C210.565 96.5037 209.495 96.1143 208.429 95.3308L208.429 95.3307L208.419 95.3237C206.218 93.7858 205.445 90.7513 205.901 86.795C206.354 82.8644 208.009 78.1839 210.441 73.6013C212.871 69.0225 216.059 64.5729 219.548 61.1004C223.046 57.6192 226.801 55.1647 230.359 54.4915ZM216.266 91.8336C216.504 91.8336 216.725 91.7462 216.914 91.636C217.106 91.5238 217.3 91.3679 217.492 91.1838C217.876 90.8157 218.303 90.2892 218.765 89.6339C219.69 88.32 220.797 86.4227 222.027 84.0647C224.487 79.3449 227.461 72.7284 230.465 65.1183C231.269 63.1075 231.797 61.4859 232.054 60.2769C232.182 59.6737 232.246 59.1529 232.236 58.7274C232.227 58.3211 232.148 57.9072 231.889 57.6174C231.589 57.2809 231.172 57.2371 230.792 57.3329C230.434 57.4236 230.046 57.6482 229.642 57.9535C228.826 58.5706 227.788 59.64 226.548 61.1479C222.103 66.4693 218.177 73.9904 215.978 80.183C214.881 83.2752 214.199 86.0764 214.115 88.1276C214.073 89.1461 214.175 90.0418 214.498 90.7022C214.663 91.0398 214.893 91.3286 215.201 91.5316C215.512 91.736 215.873 91.8336 216.266 91.8336Z" fill="white" stroke="white"/>
<path d="M29.1097 79.5529L29.0907 79.5624L29.0726 79.5735C28.8098 79.7341 28.6721 79.753 28.6286 79.7508C28.6246 79.7454 28.6188 79.7364 28.6118 79.7223C28.5709 79.6407 28.529 79.468 28.5325 79.1669C28.5359 78.8758 28.581 78.5077 28.6727 78.0691C29.0412 76.3066 30.1141 73.6259 31.7638 70.7878C34.1046 66.8878 36.9579 64.413 41.8259 61.9128C43.6656 60.9932 45.8389 60.1369 47.8139 59.5279C49.8118 58.9119 51.5347 58.572 52.5021 58.6325L52.5177 58.6335H52.5333C52.7431 58.6335 52.9336 58.6357 53.1051 58.6401C52.8452 58.7494 52.5291 58.874 52.1519 59.0152C51.2267 59.3613 49.9777 59.7916 48.3817 60.3236C43.904 61.6818 39.3781 64.421 35.9684 67.4426C34.2614 68.9552 32.8209 70.5501 31.8034 72.0937C30.7923 73.6274 30.1666 75.1589 30.1666 76.5335C30.1666 77.2118 30.0424 77.9196 29.8308 78.4939C29.6094 79.0948 29.3338 79.4408 29.1097 79.5529ZM28.6345 79.7578C28.6345 79.7578 28.6344 79.7577 28.6341 79.7574L28.6345 79.7578Z" fill="#561749" stroke="white"/>
<path d="M146.791 91.4382L146.791 91.438C146.383 91.1932 145.884 91.0746 145.447 91.3099C145.002 91.5497 144.834 92.0401 144.834 92.5335C144.834 92.6632 144.754 92.9353 144.514 93.367C144.286 93.7778 143.949 94.2692 143.526 94.8145C142.682 95.9038 141.524 97.1696 140.285 98.3749C139.047 99.5803 137.74 100.713 136.602 101.541C136.033 101.956 135.515 102.286 135.076 102.512C134.621 102.745 134.31 102.833 134.134 102.833C133.457 102.833 132.681 102.57 131.878 102.079C131.079 101.592 130.283 100.898 129.577 100.088C128.151 98.4507 127.167 96.4306 127.167 94.8002C127.167 91.9323 128.129 88.4306 129.762 84.7356C131.391 81.0484 133.672 77.2045 136.27 73.6626C138.869 70.1202 141.777 66.8919 144.655 64.4301C147.543 61.9592 150.355 60.2996 152.763 59.8241C156.328 59.1245 159.053 58.7252 161.067 58.7252C163.099 58.7252 164.264 59.133 164.881 59.8842C165.503 60.6417 165.702 61.9077 165.373 63.9801C165.048 66.031 164.228 68.7347 162.996 72.2323C158.937 83.5461 156.715 90.3652 156.19 93.7569C156.058 94.6037 156.023 95.291 156.117 95.7987C156.165 96.0557 156.252 96.3031 156.409 96.5034C156.576 96.716 156.803 96.8503 157.067 96.8936C157.543 96.9713 158.062 96.7434 158.547 96.443C159.061 96.1253 159.659 95.6465 160.333 95.04C161.066 94.3913 161.613 93.9814 161.983 93.7678C161.971 93.8 161.957 93.8343 161.942 93.8708C161.839 94.1249 161.679 94.4454 161.459 94.8324C161.02 95.6057 160.357 96.6139 159.463 97.8388L159.463 97.8387L159.457 97.8476C157.983 99.9611 156.161 101.13 154.342 101.406C152.536 101.679 150.659 101.082 149.027 99.519C148.482 98.9095 148.052 98.1423 147.79 97.3725C147.527 96.5981 147.448 95.8646 147.554 95.3139C147.767 94.5227 147.805 93.7233 147.693 93.0513C147.586 92.4038 147.315 91.7526 146.791 91.4382ZM162.353 93.6042C162.353 93.6042 162.352 93.6043 162.351 93.6043L162.353 93.6042ZM162.084 93.3779C162.084 93.3769 162.084 93.3762 162.084 93.3759L162.084 93.3779ZM148.451 81.4162L148.451 81.4152C150.788 76.5094 152.536 72.5212 153.69 69.5017C154.267 67.9924 154.699 66.718 154.982 65.688C155.261 64.6709 155.407 63.8488 155.383 63.2629C155.371 62.9741 155.316 62.6742 155.153 62.4365C154.964 62.1615 154.674 62.0308 154.355 62.043C154.074 62.0538 153.793 62.1724 153.53 62.3264C153.259 62.4855 152.962 62.7108 152.64 62.9927C151.361 64.1122 149.5 66.3006 147.066 69.5681L147.066 69.5681L147.062 69.5731C144.038 73.7402 141.055 79.1385 138.91 83.9638C137.837 86.377 136.97 88.6573 136.412 90.5772C135.862 92.4693 135.586 94.0954 135.775 95.1548L135.776 95.1604C135.913 95.8803 136.088 96.4865 136.317 96.9511C136.544 97.4089 136.858 97.7994 137.311 97.9639C137.781 98.1346 138.26 98.014 138.699 97.7541C139.134 97.4966 139.588 97.0705 140.065 96.5068C141.965 94.2648 144.658 89.3347 148.451 81.4162Z" fill="white" stroke="white"/>
<path d="M276.051 70.8834L276.051 70.8834L276.052 70.8811C276.53 69.8722 277.003 68.9792 277.421 68.2927C277.011 69.2982 276.399 70.6179 275.688 72.0395C275.337 72.7108 275.021 73.2923 274.739 73.7871C275.069 72.9923 275.504 72.022 276.051 70.8834Z" fill="white" stroke="white"/>
<path d="M284.192 79.7996L284.195 79.7911L284.199 79.7825C284.793 78.264 285.379 77.063 285.839 76.3336C285.855 76.3088 285.87 76.2848 285.885 76.2615C285.823 76.6187 285.715 77.0556 285.57 77.5489C285.252 78.6319 284.768 79.9425 284.24 81.1885C283.711 82.4364 283.146 83.6007 282.671 84.3959C282.607 84.5024 282.546 84.6002 282.489 84.6892C282.538 84.4494 282.608 84.1692 282.698 83.8534C283.007 82.7634 283.531 81.3182 284.192 79.7996ZM286.364 75.6709C286.364 75.6711 286.361 75.673 286.356 75.6756C286.361 75.6719 286.364 75.6706 286.364 75.6709ZM282.403 85.4697C282.405 85.4775 282.406 85.4821 282.406 85.4825C282.406 85.4829 282.405 85.479 282.403 85.4697Z" fill="white" stroke="white"/>
<path d="M255.889 132.127C255.889 132.127 255.886 132.126 255.881 132.123C255.886 132.125 255.889 132.127 255.889 132.127ZM274.731 121.281L274.731 121.281L274.73 121.278C273.626 118.58 274.584 114.511 277.442 111.265C280.258 108.081 285.755 108.501 288.805 112.44L288.807 112.443C290.527 114.626 291.303 116.082 291.334 117.826C291.365 119.615 290.617 121.782 289.011 125.395C285.887 132.293 279.437 136.669 272.474 137.993C265.509 139.317 258.09 137.578 253.027 132.32L253.026 132.319C252.003 131.263 251.301 130.412 250.886 129.793C250.764 129.61 250.671 129.454 250.604 129.324C250.686 129.361 250.781 129.409 250.888 129.468C251.474 129.79 252.318 130.389 253.404 131.311L253.411 131.316C254.067 131.908 254.573 132.363 254.919 132.648C255.088 132.788 255.243 132.909 255.37 132.983C255.42 133.012 255.531 133.075 255.667 133.091C255.742 133.1 255.881 133.1 256.021 133.012C256.173 132.915 256.236 132.771 256.257 132.665C256.29 132.501 256.239 132.355 256.223 132.306L256.222 132.306C256.196 132.23 256.16 132.15 256.12 132.072C256.041 131.913 255.923 131.708 255.773 131.462C255.474 130.969 255.021 130.264 254.426 129.338L254.421 129.33L254.421 129.33C253.816 128.389 253.382 127.705 253.105 127.153C252.828 126.601 252.742 126.246 252.765 125.956C252.787 125.675 252.919 125.374 253.264 124.946C253.614 124.512 254.138 124.002 254.878 123.296L254.878 123.296L254.887 123.288L257.413 120.761L259.864 124.03C262.54 127.733 266.611 130.26 270.813 131.302C275.011 132.343 279.401 131.914 282.684 129.612C284.841 128.149 286.724 125.705 287.951 123.15C289.171 120.607 289.792 117.847 289.286 115.75L289.286 115.75L289.284 115.74C288.725 113.612 287.664 112.106 286.326 111.219C284.988 110.332 283.415 110.094 281.893 110.429C278.85 111.099 276.059 114.034 275.504 118.605C275.371 119.634 275.248 120.435 275.127 121.029C275.062 121.349 275 121.59 274.945 121.767C274.88 121.637 274.809 121.476 274.731 121.281ZM250.218 129.2C250.218 129.199 250.221 129.199 250.229 129.2C250.223 129.2 250.219 129.2 250.218 129.2ZM274.789 122.131C274.789 122.131 274.791 122.129 274.794 122.126C274.791 122.13 274.789 122.132 274.789 122.131Z" fill="white" stroke="white"/>
<path d="M135.557 158.259L135.557 158.259L135.567 158.267C137.656 159.834 138.208 161.223 137.799 162.357C137.402 163.371 136.498 163.996 135.543 164.139C134.598 164.28 133.651 163.945 133.104 163.089C132.981 162.831 133.05 162.742 133.083 162.707C133.162 162.622 133.392 162.5 133.867 162.5C134.632 162.5 135.27 162.39 135.719 162.131C135.951 161.997 136.148 161.814 136.27 161.571C136.394 161.326 136.421 161.06 136.376 160.799C136.291 160.303 135.947 159.807 135.475 159.339C134.992 158.861 134.319 158.357 133.471 157.846C132.95 157.488 132.564 157.192 132.29 156.929C132.013 156.663 131.88 156.459 131.824 156.292C131.757 156.089 131.774 155.844 131.997 155.44L132.357 155.725L135.557 158.259ZM132.667 154.833H132.402C133.331 153.775 133.876 153.373 134.421 153.314C134.987 153.252 135.709 153.541 137.058 154.418C137.266 154.557 137.43 154.674 137.555 154.772C137.538 154.774 137.521 154.776 137.503 154.778C137.157 154.816 136.663 154.833 136 154.833H132.667Z" fill="white" stroke="white"/>
<path d="M148.093 157.016L148.093 157.016L148.094 157.013C148.294 155.751 148.486 154.804 148.661 154.159C148.673 154.256 148.685 154.36 148.696 154.471C148.783 155.343 148.833 156.607 148.833 158.267C148.833 159.919 148.7 161.131 148.502 161.831C148.465 161.962 148.428 162.068 148.392 162.151C148.325 162.023 148.256 161.851 148.193 161.632C148.091 161.282 148.012 160.847 147.964 160.352C147.869 159.363 147.9 158.174 148.093 157.016ZM148.986 153.281C148.986 153.281 148.985 153.283 148.982 153.286C148.985 153.282 148.986 153.281 148.986 153.281ZM148.465 153.249C148.463 153.247 148.462 153.246 148.462 153.245C148.462 153.245 148.463 153.246 148.465 153.249ZM148.507 162.332C148.507 162.332 148.507 162.332 148.506 162.331C148.507 162.332 148.507 162.332 148.507 162.332Z" fill="white" stroke="white"/>
<path d="M159.815 155.159L159.815 155.159L159.821 155.154C160.924 154.05 162.608 153.389 164.011 153.265C164.715 153.202 165.292 153.279 165.67 153.454C166.022 153.616 166.167 153.837 166.167 154.133C166.167 154.304 166.083 154.428 165.896 154.496C165.689 154.572 165.333 154.574 164.891 154.353L164.867 154.341L164.843 154.332C164.151 154.073 163.284 154.177 162.496 154.464C161.701 154.753 160.902 155.257 160.309 155.917C159.814 156.38 159.417 156.784 159.138 157.157C158.854 157.535 158.659 157.925 158.634 158.355C158.609 158.791 158.765 159.185 159.012 159.56C159.254 159.929 159.61 160.318 160.046 160.754C160.644 161.351 161.39 161.762 162.126 161.951C162.854 162.138 163.632 162.12 164.248 161.767L164.263 161.758L164.277 161.749C164.592 161.539 164.863 161.325 165.057 161.093C165.255 160.856 165.399 160.566 165.383 160.226C165.367 159.895 165.203 159.612 164.996 159.374C164.805 159.154 164.546 158.938 164.237 158.716C164.349 158.73 164.47 158.745 164.599 158.762C165.452 158.884 166.015 159.182 166.349 159.519C166.678 159.851 166.805 160.24 166.769 160.62C166.698 161.378 165.923 162.325 164.196 162.572L164.196 162.572L164.188 162.573C161.407 163.016 159.404 161.995 158.548 160.531C157.704 159.086 157.878 157.033 159.815 155.159Z" fill="white" stroke="white"/>
<path d="M176.527 153.431L178.994 155.701L178.994 155.701L182.328 158.768L183.167 159.539V158.4V155.6C183.167 154.864 183.321 154.204 183.536 153.746C183.644 153.515 183.758 153.356 183.857 153.261C183.905 153.215 183.943 153.19 183.968 153.178C183.981 153.172 183.989 153.169 183.994 153.168C183.996 153.167 183.998 153.167 183.999 153.167L184 153.167L184 153.167C184.159 153.167 184.289 153.228 184.41 153.444C184.548 153.691 184.651 154.113 184.667 154.746C184.698 156.001 184.382 157.874 183.655 160.254L183.651 160.266L183.648 160.279L183.075 162.572L181.037 160.331L181.037 160.331L178.37 157.397L177.742 156.705L177.515 157.612L176.76 160.633C176.707 160.009 176.666 159.174 176.633 158.119L176.527 153.431Z" fill="white" stroke="white"/>
<path d="M194.39 154.447L194.423 154.405L194.447 154.358C194.566 154.12 194.929 153.813 195.527 153.561C196.102 153.319 196.803 153.167 197.466 153.167C198.139 153.167 198.585 153.323 198.8 153.484C198.903 153.561 198.928 153.62 198.933 153.64L198.933 153.64C198.936 153.649 198.943 153.675 198.909 153.734C198.493 154.348 197.862 154.461 197.481 154.252C197.09 153.95 196.615 153.779 196.171 153.95C195.69 154.135 195.5 154.615 195.5 155.067C195.5 155.661 195.841 156.181 196.246 156.587C196.662 157.003 197.211 157.365 197.777 157.647L197.8 157.659L197.824 157.668C198.254 157.829 198.679 158.163 198.997 158.596C199.314 159.029 199.5 159.527 199.5 160C199.5 161.075 198.747 161.953 197.705 162.35C196.667 162.745 195.453 162.614 194.62 161.78C194.393 161.553 194.259 161.386 194.19 161.27C194.224 161.26 194.269 161.248 194.327 161.236C194.55 161.192 194.878 161.167 195.333 161.167C195.888 161.167 196.36 161.16 196.697 161.101C196.863 161.072 197.055 161.021 197.216 160.911C197.405 160.782 197.537 160.58 197.549 160.325C197.56 160.111 197.483 159.915 197.404 159.761C197.321 159.599 197.203 159.425 197.063 159.241C196.784 158.872 196.37 158.398 195.84 157.802L195.84 157.802L195.836 157.798C195.209 157.107 194.745 156.329 194.503 155.663C194.381 155.329 194.322 155.042 194.316 154.82C194.31 154.59 194.36 154.485 194.39 154.447ZM194.141 161.169C194.141 161.169 194.141 161.17 194.142 161.171L194.141 161.169Z" fill="white" stroke="white"/>
<path d="M101.912 155.779L101.912 155.78C101.546 156.147 101.286 156.793 101.116 157.44C100.939 158.112 100.833 158.888 100.833 159.6C100.833 161.181 101.843 162.213 103.086 162.457C104.315 162.699 105.72 162.166 106.559 160.794C106.94 160.175 106.868 159.421 106.638 158.762C106.404 158.09 105.973 157.413 105.473 156.851C104.976 156.292 104.376 155.807 103.777 155.554C103.184 155.303 102.455 155.237 101.912 155.779ZM102.204 163.905C101.061 163.742 100.072 162.741 99.538 161.218C99.01 159.712 98.9767 157.803 99.6636 156.053C99.9446 155.366 100.575 154.951 101.482 154.802C102.398 154.652 103.533 154.792 104.655 155.173C105.774 155.554 106.836 156.162 107.61 156.903C108.386 157.646 108.833 158.482 108.833 159.333C108.833 159.747 108.626 160.267 108.201 160.839C107.782 161.401 107.185 161.966 106.493 162.459C105.086 163.462 103.417 164.078 102.204 163.905Z" fill="white" stroke="white"/>
<path d="M121.044 162.499L121.056 162.5H121.067C121.819 162.5 122.48 162.627 122.933 162.825C123.387 163.024 123.487 163.219 123.499 163.315C123.489 163.331 123.46 163.371 123.384 163.431C123.246 163.54 123.015 163.663 122.685 163.778C122.032 164.006 121.09 164.167 120 164.167C119.059 164.167 118.39 164.149 117.893 164.055C117.414 163.964 117.163 163.814 116.998 163.597C116.815 163.357 116.677 162.961 116.597 162.248C116.517 161.543 116.5 160.604 116.5 159.334C116.5 158.027 116.509 157.072 116.585 156.362C116.661 155.643 116.799 155.271 116.981 155.058C117.146 154.863 117.415 154.723 117.973 154.655C118.539 154.586 119.305 154.6 120.381 154.634C120.515 154.639 120.643 154.646 120.766 154.652C120.209 154.818 119.736 155.03 119.353 155.271C118.797 155.623 118.374 156.077 118.247 156.598C118.181 156.868 118.199 157.148 118.316 157.41C118.431 157.668 118.629 157.875 118.873 158.034C119.351 158.344 120.055 158.5 120.933 158.5C121.197 158.5 121.409 158.505 121.575 158.515C121.551 158.537 121.526 158.56 121.5 158.584C121.216 158.838 120.799 159.167 120.233 159.6C119.607 160.061 119.121 160.425 118.803 160.708C118.646 160.847 118.503 160.99 118.403 161.135C118.315 161.263 118.178 161.515 118.276 161.808C118.372 162.096 118.626 162.218 118.768 162.27C118.93 162.33 119.125 162.365 119.328 162.39C119.728 162.44 120.294 162.466 120.995 162.497L121.044 162.499Z" fill="white" stroke="white"/>
<mask id="path-22-inside-2_9_6" fill="white">
<path d="M212.4 156.267C213.6 156.533 215.467 156.533 216.4 156.267C217.2 155.867 216.267 155.6 214 155.6C211.867 155.6 211.067 155.867 212.4 156.267Z"/>
</mask>
<path d="M212.4 156.267C213.6 156.533 215.467 156.533 216.4 156.267C217.2 155.867 216.267 155.6 214 155.6C211.867 155.6 211.067 155.867 212.4 156.267Z" fill="white"/>
<path d="M212.4 156.267L212.113 157.225L212.148 157.235L212.184 157.243L212.4 156.267ZM216.4 156.267L216.674 157.229L216.764 157.203L216.847 157.161L216.4 156.267ZM212.184 157.243C212.875 157.396 213.718 157.466 214.5 157.466C215.27 157.466 216.077 157.399 216.674 157.229L216.126 155.305C215.79 155.401 215.197 155.466 214.5 155.466C213.816 155.466 213.125 155.404 212.616 155.291L212.184 157.243ZM216.847 157.161C216.987 157.092 217.165 156.989 217.319 156.839C217.461 156.699 217.736 156.362 217.673 155.867C217.612 155.389 217.279 155.133 217.126 155.036C216.952 154.925 216.765 154.861 216.62 154.821C216.057 154.663 215.131 154.6 214 154.6V156.6C215.135 156.6 215.81 156.671 216.08 156.746C216.143 156.764 216.117 156.765 216.054 156.725C216.012 156.698 215.74 156.518 215.689 156.121C215.637 155.708 215.871 155.457 215.92 155.408C215.981 155.349 216.013 155.342 215.953 155.373L216.847 157.161ZM214 154.6C213.449 154.6 212.968 154.617 212.575 154.652C212.212 154.684 211.83 154.738 211.538 154.852C211.435 154.891 211.083 155.03 210.881 155.399C210.754 155.631 210.712 155.909 210.782 156.184C210.845 156.429 210.978 156.596 211.071 156.692C211.246 156.871 211.456 156.976 211.589 157.036C211.744 157.106 211.923 157.168 212.113 157.225L212.687 155.309C212.544 155.266 212.456 155.233 212.408 155.211C212.338 155.18 212.409 155.199 212.504 155.296C212.557 155.351 212.666 155.479 212.719 155.686C212.78 155.923 212.742 156.165 212.635 156.361C212.542 156.53 212.423 156.621 212.37 156.657C212.312 156.696 212.269 156.713 212.263 156.715C212.252 156.72 212.282 156.708 212.38 156.69C212.47 156.674 212.593 156.658 212.751 156.644C213.066 156.616 213.485 156.6 214 156.6V154.6Z" fill="white" mask="url(#path-22-inside-2_9_6)"/>
<path d="M82.7459 157.506L82.7459 157.506L82.7438 157.506L82.3694 157.448L83.0775 157.433L83.0775 157.433L83.0855 157.433C84.8498 157.367 86.2645 157.524 87.2879 157.798C87.7997 157.934 88.2021 158.098 88.498 158.269C88.7986 158.442 88.9609 158.608 89.0348 158.735C89.0988 158.845 89.1 158.926 89.0683 159.01C89.0284 159.115 88.9135 159.276 88.6369 159.463C88.0814 159.838 87.0392 160.208 85.4031 160.437C84.2812 160.569 83.4022 160.595 82.869 160.521C82.8284 160.516 82.7918 160.51 82.7588 160.504C82.7995 160.475 82.8458 160.445 82.8983 160.414C83.099 160.293 83.3589 160.167 83.6632 160.05C84.2671 159.818 85.0128 159.631 85.7552 159.567C85.9558 159.566 86.1293 159.558 86.2683 159.538C86.3395 159.528 86.4174 159.513 86.4917 159.488C86.5504 159.468 86.6824 159.417 86.7848 159.292C86.8439 159.22 86.8949 159.121 86.9062 158.998C86.9174 158.878 86.8864 158.775 86.8491 158.701C86.7832 158.571 86.6805 158.494 86.6304 158.459C86.5163 158.38 86.3665 158.316 86.2213 158.264C85.6225 158.046 84.4144 157.773 82.7459 157.506Z" fill="white" stroke="white"/>
<path d="M212.846 159.801L212.86 159.795L212.874 159.789C213.574 159.471 214.445 159.18 215.273 158.968C215.937 158.799 216.547 158.688 217.006 158.649C216.858 158.718 216.686 158.791 216.487 158.867L216.474 158.873L216.46 158.879C215.76 159.197 214.889 159.488 214.06 159.699C213.397 159.868 212.786 159.98 212.327 160.019C212.475 159.95 212.648 159.877 212.846 159.801Z" fill="white" stroke="white"/>
</g>
<defs>
<clipPath id="clip0_9_6">
<rect width="292" height="165" fill="white"/>
</clipPath>
</defs>
</svg>
