<svg width="292" height="165" viewBox="0 0 292 165" fill="none" xmlns="http://www.w3.org/2000/svg">
<path d="M134.4 2.53346C127.467 4.40012 117.867 10.4001 115.867 14.2668C115.067 15.7335 117.333 14.6668 121.333 11.4668C130 5.06679 135.6 3.33346 148.267 3.33346C159.6 3.33346 168.267 5.86679 178 12.0001C188.933 18.8001 188.933 18.8001 186.8 16.2668C183.733 12.5335 170.533 5.06679 162.8 2.80012C154.267 0.26679 143.2 0.133457 134.4 2.53346Z" fill="#561749"/>
<path d="M237.334 3.46698C227.734 7.46698 220.934 20.5336 225.067 27.067C225.734 28.1336 226.267 26.4003 226.267 22.8003C226.267 19.467 227.2 15.3336 228.534 13.3336C234 4.93364 246.667 1.86698 252 7.60031C258.667 14.8003 256.134 24.4003 246.134 30.5336C235.2 37.3336 220.934 35.867 198 25.3336C182.8 18.267 176 16.4003 164.4 15.6003C151.867 14.9336 142.8 16.0003 139.2 18.667C135.067 21.6003 137.467 21.867 147.334 19.6003C155.067 17.867 158.4 17.867 167.2 19.067C176.667 20.4003 194.667 27.2003 194.667 29.3336C194.667 29.7336 192.8 29.067 190.534 27.867C188.267 26.8003 186.8 26.4003 187.2 27.067C188.534 29.3336 202.667 36.8003 210.534 39.467C217.867 42.0003 230.134 42.9336 228.8 40.8003C228.4 40.267 230.8 39.3336 234 38.9336C245.334 37.3336 253.467 31.467 257.334 22.0003C259.6 16.667 257.2 8.26698 252.8 5.33364C248.667 2.53364 241.467 1.73364 237.334 3.46698ZM207.6 35.2003C208.934 36.0003 209.6 36.667 209.2 36.667C207.867 36.667 196 31.3336 196 30.5336C196 29.867 204 33.067 207.6 35.2003ZM225.2 40.1336C226.534 41.3336 217.734 40.5336 216 39.2003C214.534 38.267 215.467 38.1336 219.334 38.8003C222.267 39.3336 224.934 39.867 225.2 40.1336Z" fill="#561749"/>
<path d="M85.7332 16.6667C79.8665 19.3334 74.2665 25.3334 70.3999 33.3334L67.7332 38.8001L56.7999 38.2668C32.7999 37.0668 12.2665 47.4668 3.73319 65.3334C-1.46681 76.4001 -1.20014 90.9334 4.53319 98.6668C7.46653 102.667 8.26653 100.4 5.99986 94.9334C3.73319 89.3334 3.33319 78.2668 5.33319 71.2001C7.59986 63.0668 16.2665 54.6667 28.6665 48.5334C38.2665 43.7334 41.1999 42.9334 51.0665 42.4001C57.3332 42.0001 63.3332 42.0001 64.3999 42.4001C66.1332 43.0668 65.5999 45.7334 61.4665 58.8001L56.5332 74.4001L47.9999 76.1334C23.5999 81.2001 3.73319 100 3.46653 118.533C3.19986 140 26.5332 148 43.7332 132.267C50.9332 125.6 56.9332 113.467 62.1332 94.9334C64.1332 87.8668 66.2665 82.0001 66.7999 82.0001C68.9332 82.0001 71.0665 88.0001 72.1332 97.8668C73.8665 111.867 80.6665 125.6 88.9332 132C94.7999 136.533 98.3999 138 96.6665 135.467C96.2665 134.8 99.1999 135.333 103.333 136.8C112.267 139.867 117.6 140 126.4 137.2C132.667 135.067 133.6 135.067 137.867 137.2C144.267 140.267 156.533 140 163.333 136.667C166.4 135.2 172.4 130.533 176.667 126.267C181.867 121.067 183.6 120 181.867 122.667L179.467 126.667L182.533 124C187.333 119.867 191.733 110 200.133 84.6668C204.267 71.8668 208.133 60.2667 208.667 59.0667C209.867 56.1334 205.333 53.7334 200.267 54.8001C196.933 55.4668 196.133 56.4001 195.467 60.5334C194.533 66.4001 180 95.6001 177.733 96.4001C174.667 97.3334 175.867 89.4667 180.8 75.3334C185.067 62.6667 185.333 61.4668 183.333 59.3334C182 57.8668 179.467 56.9334 176.667 57.0667C172.533 57.2001 172.267 57.4668 172.933 60.8001C173.333 62.9334 172.267 68.8001 170.267 74.9334C164.267 93.3334 164.4 97.3334 170.8 100.8C175.067 103.067 179.6 99.8668 184.4 91.4668C186.667 87.4668 188.667 84.8001 188.933 85.4668C189.2 86.2668 187.333 92.1334 184.667 98.6668C179.867 111.067 172.4 123.333 169.867 123.333C166.667 123.333 165.467 113.333 168 108.533C168.8 107.2 168.933 106 168.267 106C166.667 106 164 112.133 164 115.733C164 117.333 164.933 120.4 166 122.533C167.867 126 167.867 126.533 165.733 128.267C158.133 134.267 143.733 137.333 138.667 134C136.933 132.8 137.2 132.133 140.267 129.867C144.8 126.533 149.333 119.2 149.333 115.467C149.333 111.2 144.667 107.333 139.333 107.333C136.8 107.333 131.333 108.667 127.2 110.133C116 114.4 109.867 114.133 105.867 109.6C102.133 105.333 101.867 100.4 104.667 93.4668C107.467 86.9334 114.667 75.3334 116 75.3334C116.533 75.3334 115.6 79.8668 113.867 85.3334C110.267 96.5334 110 99.6001 112 103.467C113.467 106.133 118 106.8 121.2 104.8C122.533 104 122.533 103.067 121.6 101.067C120.533 99.0668 121.2 95.3334 124.8 84.8001C127.2 77.3334 129.867 70.1334 130.667 68.8001C131.6 66.9334 131.333 65.7334 129.467 64.1334C125.333 60.4001 121.867 61.6001 115.467 68.9334L109.333 76.0001L114.667 61.0667C120.933 43.2001 124.267 36.0001 128.667 30.6667C131.2 27.6001 131.867 27.2001 132 29.0667C132 32.5334 128.4 40.5334 124.533 45.6001C122.667 48.0001 121.867 50.0001 122.667 50.0001C124.533 50.0001 131.733 38.5334 133.467 32.6667C135.333 26.5334 134.533 16.4001 132.267 15.6001C130.8 15.2001 130.667 15.6001 131.867 17.7334C133.067 20.0001 132.4 20.8001 126.667 24.4001C119.333 28.9334 113.2 36.6667 109.867 45.4667C108.4 49.2001 106.8 51.3334 105.333 51.3334C101.733 51.3334 101.467 50.0001 104.133 45.3334C105.6 42.9334 107.067 38.0001 107.6 34.4001C109.2 20.1334 98.1332 11.0667 85.7332 16.6667ZM99.1999 22.2667C100.4 23.8667 101.333 27.2001 101.333 29.6001C101.333 33.8667 97.8665 45.7334 96.1332 47.7334C94.9332 48.9334 79.5999 42.8001 78.9332 40.9334C78.2665 38.6667 83.1999 28.5334 87.1999 23.6001C91.5999 18.5334 96.2665 18.0001 99.1999 22.2667ZM86.3999 47.8668C90.2665 49.3334 93.3332 51.2001 93.3332 52.0001C93.3332 52.8001 89.5999 57.0667 85.0665 61.6001C77.0665 69.3334 72.3999 72.6668 69.5999 72.6668C68.7999 72.6668 69.9999 67.0668 71.9999 60.2668C75.7332 47.0668 76.9332 44.2667 78.5332 44.9334C78.9332 45.2001 82.5332 46.5334 86.3999 47.8668ZM105.333 54.9334C105.333 55.3334 102.667 64.1334 99.1999 74.5334C90.2665 102.4 90.1332 108.667 98.1332 108.667C99.8665 108.667 102.8 110.133 104.8 112C109.2 116.133 117.067 116.4 126.267 112.8C139.733 107.6 146.667 108.533 144.933 115.467C144 119.067 135.2 130 133.2 130C132.533 130 130.667 127.467 129.2 124.267C126.933 119.333 126.667 119.2 127.2 122.667C127.467 124.8 128.133 128 128.667 129.6C129.6 132.4 129.2 132.667 125.2 132.933C112.667 133.6 105.467 131.2 97.3332 123.867C88.5332 115.867 84.3999 107.067 81.9999 91.3334C80.7999 83.3334 78.2665 79.6001 73.0665 78.2668L68.6665 77.2001L77.1999 72.6668C81.8665 70.1334 88.9332 64.6667 93.0665 60.5334C98.1332 55.4667 101.2 53.2001 102.933 53.7334C104.267 54.0001 105.333 54.6667 105.333 54.9334ZM54.6665 80.2668C54.6665 85.7334 47.4665 108.8 42.6665 118.8C36.5332 131.467 30.5332 136.667 21.8665 136.667C15.7332 136.667 11.4665 134.133 8.66653 128.667C3.86653 119.467 8.26653 106 19.7332 94.6668C27.1999 87.2001 34.5332 83.0668 45.3332 80.1334C54.7999 77.6001 54.6665 77.6001 54.6665 80.2668ZM94.6665 133.733C94.6665 134.8 86.9332 127.733 84.6665 124.667C83.3332 122.8 85.0665 124 88.3999 127.333C91.8665 130.533 94.6665 133.467 94.6665 133.733Z" fill="#561749"/>
<path d="M35.4663 86.1336C27.0663 90.5336 13.333 103.2 13.333 106.534C13.333 109.734 21.1997 113.067 28.533 112.934C33.0663 112.8 36.533 111.734 40.2663 109.334C43.1997 107.334 45.333 105.467 44.933 105.067C44.533 104.8 42.3997 105.734 40.133 107.467C33.0663 112.667 18.133 112 16.2663 106.267C15.333 103.334 29.5997 90.667 38.7997 86.267C43.4663 83.867 46.3997 82.1336 45.333 82.1336C44.2663 82.1336 39.733 84.0003 35.4663 86.1336Z" fill="#561749"/>
<path d="M268.8 20.8001C263.6 24.9334 259.466 33.0668 254.133 49.3334C244.533 78.8001 241.6 98.4001 244.533 112.667L246.666 122.533L242.266 126.267C231.466 135.733 220 138.267 213.866 132.533C209.6 128.533 209.866 127.067 215.333 124.133C220.4 121.333 230.666 111.067 230.666 108.667C230.666 105.733 225.2 101.867 222.266 102.667C214.4 104.933 207.866 112.667 206.8 120.933C206.133 125.467 205.2 126.933 202.266 128.4C196.8 131.067 185.466 132.533 180.8 131.2C176.4 129.867 174.4 130.8 177.333 132.8C180.4 134.8 197.333 133.467 202.533 130.8C206.933 128.4 207.066 128.4 209.866 131.733C216.8 140 225.866 140.933 236.666 134.667C243.6 130.667 263.2 110.267 269.866 100.267C280.4 84.1334 288.4 61.4668 284.266 58.9334C283.6 58.4001 282.8 60.6668 282.4 64.5334C282 68.1334 279.733 75.0668 276.8 80.8001C271.066 92.2668 257.333 112 255.333 111.6C254.666 111.467 253.866 107.467 253.6 102.8C252.8 84.4001 266.8 34.4001 275.733 24.2668C279.733 19.7334 285.333 22.8001 285.333 29.8668C285.333 36.6668 279.466 47.7334 271.6 56.2668C267.066 61.2001 264.533 64.4001 266.133 63.6001C267.6 62.8001 271.333 59.4668 274.533 56.0001C286.266 43.3334 290.4 26.4001 283.2 20.8001C278.666 17.2001 273.333 17.2001 268.8 20.8001ZM227.066 106.267C228.133 109.6 224.666 114.267 217.333 119.6L210 124.8L209.6 121.467C209.333 119.733 210.133 116.267 211.333 114C214.8 107.333 225.6 102 227.066 106.267Z" fill="#561749"/>
<path d="M276.933 27.3333C276.533 28.3999 275.866 31.0666 275.333 33.0666C274.933 35.1999 273.2 39.7333 271.466 43.1999C265.6 55.4666 265.466 57.9999 271.333 48.1333C275.6 40.7999 279.066 30.7999 278.266 27.7333C277.866 25.7333 277.6 25.7333 276.933 27.3333Z" fill="#561749"/>
<path d="M159.467 33.8669C158.934 34.6669 156.8 34.9336 154.667 34.4002C151.734 33.8669 150.534 34.2669 149.867 35.8669C148.934 38.4002 152.534 44.4002 155.6 45.6002C158.4 46.6669 164.267 40.0002 163.734 36.2669C163.334 33.2002 160.667 31.7336 159.467 33.8669Z" fill="#561749"/>
<path d="M28.6661 50.1333C19.5995 54.9333 13.9995 60.1333 10.1328 67.2C8.13279 70.9333 6.79945 74 7.06612 74C7.33279 74 9.73279 70.8 12.3995 66.8C17.1995 59.6 25.1995 52.9333 33.7328 49.3333C35.9995 48.2667 37.0661 47.4667 35.9995 47.3333C34.9328 47.3333 31.5995 48.6667 28.6661 50.1333Z" fill="#561749"/>
<path d="M230.266 54.0002C215.466 56.8002 198.4 88.9336 208.133 95.7336C212.666 99.0669 217.733 96.0002 223.6 86.5336C224.933 84.2669 225.066 84.5336 225.066 88.2669C224.933 93.3336 227.333 96.6669 230.933 96.6669C234.133 96.6669 240.666 90.0002 241.733 85.7336C242.4 83.2002 242 83.4669 239.066 87.2002C231.6 96.8002 233.2 83.8669 242 64.0002C244.933 57.2002 244.933 56.8002 242.8 54.8002C240.266 52.5336 238.266 52.4002 230.266 54.0002ZM230 64.9336C224 80.1336 218.133 91.3336 216.266 91.3336C211.333 91.3336 218.133 72.0002 226.933 61.4669C231.866 55.4669 233.2 56.9336 230 64.9336Z" fill="#561749"/>
<path d="M41.5999 61.4668C36.6666 64.0001 33.7333 66.5335 31.3333 70.5335C27.9999 76.2668 26.9333 81.4668 29.3333 80.0001C30.1333 79.6001 30.6666 78.0001 30.6666 76.5335C30.6666 71.6001 39.7333 63.4668 48.5333 60.8001C54.9333 58.6668 55.8666 58.1335 52.5333 58.1335C50.3999 58.0001 45.3333 59.6001 41.5999 61.4668Z" fill="#561749"/>
<path d="M152.667 59.3335C142.534 61.3335 126.667 82.9335 126.667 94.8002C126.667 98.4002 130.934 103.333 134.134 103.333C136.534 103.333 145.334 94.6668 145.334 92.5335C145.334 91.7335 145.867 91.4668 146.534 91.8668C147.2 92.2668 147.467 93.7335 147.067 95.2002C146.8 96.5335 147.467 98.5335 148.667 99.8668C152.134 103.2 156.8 102.533 159.867 98.1335C163.467 93.2002 163.467 91.6002 160 94.6668C154.667 99.4668 155.334 95.0668 163.467 72.4002C168.4 58.4002 166.934 56.5335 152.667 59.3335ZM148 81.2002C140.4 97.0668 137.334 100.667 136.267 95.0668C135.6 91.3335 141.467 78.1335 147.467 69.8668C157.2 56.8002 157.334 61.6002 148 81.2002Z" fill="#561749"/>
<path d="M275.6 70.667C272.4 77.3337 272.933 78.4003 276.133 72.267C277.6 69.3337 278.667 66.8003 278.4 66.5337C278 66.267 276.8 68.1337 275.6 70.667Z" fill="#561749"/>
<path d="M283.733 79.6003C282.4 82.667 281.6 85.467 282 85.7336C282.8 86.5336 286.933 76.8003 286.4 75.3336C286.133 74.667 284.933 76.5336 283.733 79.6003Z" fill="#561749"/>
<path d="M277.067 110.934C274.133 114.267 273.067 118.534 274.267 121.467C275.067 123.467 275.467 122.8 276 118.667C277.067 109.867 286.667 107.734 288.8 115.867C289.733 119.734 286.533 126.4 282.4 129.2C276.133 133.6 265.467 130.934 260.267 123.734L257.467 120L254.533 122.934C251.6 125.734 251.6 125.867 254 129.6C256.4 133.334 256.4 133.334 253.733 130.934C249.333 127.2 248.533 128.4 252.667 132.667C263.067 143.467 283.067 139.734 289.467 125.6C292.667 118.4 292.667 116.534 289.2 112.134C286 108 280.133 107.467 277.067 110.934Z" fill="#561749"/>
<path d="M132 154.533C130.8 156.133 131.067 156.8 133.2 158.267C136.533 160.267 136.8 162 133.867 162C132.8 162 132.267 162.533 132.667 163.333C134 165.467 137.333 164.933 138.267 162.533C138.8 161.067 138 159.467 135.867 157.867L132.667 155.333H136C138.667 155.333 138.933 155.067 137.333 154C134.667 152.267 133.867 152.4 132 154.533Z" fill="#561749"/>
<path d="M147.6 156.934C147.2 159.334 147.467 161.867 148.133 162.667C148.8 163.334 149.333 161.6 149.333 158.267C149.333 151.6 148.533 151.067 147.6 156.934Z" fill="#561749"/>
<path d="M159.467 154.8C155.333 158.8 158.4 164 164.267 163.067C168 162.533 168.4 158.8 164.667 158.267C162.667 158 162.4 158.133 163.867 159.067C165.2 160 165.2 160.533 164 161.333C163.067 161.867 161.467 161.467 160.4 160.4C158.667 158.667 158.667 158.133 160.667 156.267C161.733 155.067 163.6 154.4 164.667 154.8C165.733 155.333 166.667 154.933 166.667 154.133C166.667 152 161.867 152.4 159.467 154.8Z" fill="#561749"/>
<path d="M176.133 158.133C176.267 162.4 176.533 163.2 177.2 160.933L178 157.733L180.667 160.667L183.333 163.6L184.133 160.4C185.6 155.6 185.467 152.667 184 152.667C183.333 152.667 182.667 154 182.667 155.6V158.4L179.333 155.333L176 152.267L176.133 158.133Z" fill="#561749"/>
<path d="M194 154.134C193.466 154.8 194.133 156.667 195.466 158.134C197.6 160.534 197.6 160.667 195.333 160.667C193.466 160.667 193.2 161.067 194.266 162.134C196.266 164.134 200 162.667 200 160C200 158.8 199.066 157.6 198 157.2C196.933 156.667 196 155.867 196 155.067C196 154.4 196.533 154.134 197.2 154.667C197.866 155.067 198.8 154.8 199.333 154C199.733 153.334 198.933 152.667 197.466 152.667C196 152.667 194.4 153.334 194 154.134Z" fill="#561749"/>
<path d="M99.1994 155.867C97.7328 159.6 99.3328 164 102.133 164.4C104.933 164.8 109.333 161.6 109.333 159.333C109.333 155.2 100.666 152.267 99.1994 155.867ZM106.133 160.533C104.666 162.933 101.333 162.267 101.333 159.6C101.333 158.267 101.733 156.667 102.266 156.133C103.599 154.8 107.199 158.8 106.133 160.533Z" fill="#561749"/>
<path d="M116 159.334C116 164.4 116.267 164.667 120 164.667C122.267 164.667 124 164 124 163.334C124 162.534 122.667 162 121.067 162C118.133 161.867 118 161.867 120.533 160C122.8 158.267 122.933 158 120.933 158C117.6 158 118.133 155.6 121.733 154.934C123.867 154.534 123.467 154.267 120.4 154.134C116.133 154 116 154.134 116 159.334Z" fill="#561749"/>
<path d="M212.4 156.267C213.6 156.533 215.467 156.533 216.4 156.267C217.2 155.867 216.267 155.6 214 155.6C211.867 155.6 211.067 155.867 212.4 156.267Z" fill="#561749"/>
<path d="M82.667 158C86.0003 158.533 87.3337 159.067 85.7337 159.067C84.1337 159.2 82.5337 159.867 82.1337 160.4C81.7337 161.067 83.2003 161.2 85.467 160.933C92.1337 160 90.267 156.667 83.067 156.933L76.667 157.067L82.667 158Z" fill="#561749"/>
<path d="M212.667 159.334C210.933 160 210.8 160.534 212 160.534C213.067 160.534 215.2 160 216.667 159.334C218.4 158.667 218.533 158.134 217.333 158.134C216.267 158.134 214.133 158.667 212.667 159.334Z" fill="#561749"/>
</svg>
